<?xml version="1.0" encoding="UTF-8"?>
<svg id="Layer_2" data-name="Layer 2" xmlns="http://www.w3.org/2000/svg" xmlns:xlink="http://www.w3.org/1999/xlink" viewBox="0 0 50 48.69">
  <defs>
    <style>
      .cls-1 {
        fill: url(#linear-gradient-2);
      }

      .cls-2 {
        fill: none;
      }

      .cls-3 {
        fill: url(#linear-gradient-3);
      }

      .cls-4 {
        fill: url(#linear-gradient);
      }
    </style>
    <linearGradient id="linear-gradient" x1="14.07" y1="39.26" x2="14.07" y2="9.41" gradientUnits="userSpaceOnUse">
      <stop offset="0" stop-color="#ff1b37"/>
      <stop offset="1" stop-color="#900006"/>
    </linearGradient>
    <linearGradient id="linear-gradient-2" x1="35.84" y1="39.04" x2="35.84" y2="9.41" xlink:href="#linear-gradient"/>
    <linearGradient id="linear-gradient-3" x1="26.38" y1="39.28" x2="26.38" y2="20.06" xlink:href="#linear-gradient"/>
  </defs>
  <g id="PRINT">
    <g>
      <path class="cls-2" d="m0,40.37V8.32c.03-.13.07-.26.09-.39.14-1.41.59-2.71,1.37-3.88C2.96,1.8,5.04.47,7.72.09c.22-.03.44-.06.66-.09h33.3c.06.02.12.03.18.04.31.04.63.05.94.12,2.89.6,5.01,2.22,6.34,4.86.49.97.77,2.01.83,3.1,0,.07.03.14.04.21v32.04c-.02.21-.04.41-.06.61-.11.81-.31,1.58-.63,2.33-1.4,3.28-4.59,5.38-8.19,5.39H8.93c-.71,0-1.41-.09-2.1-.25-3.48-.81-6.2-3.77-6.69-7.29-.04-.27-.09-.53-.14-.79h0Z"/>
      <g>
        <path class="cls-4" d="m8,9.41v29.83s.06.01.09.02c4.01-9.94,8.02-19.87,12.04-29.85h-12.13Z"/>
        <path class="cls-1" d="m29.67,9.41c4.11,9.87,8.2,19.7,12.33,29.63V9.41h-12.33Z"/>
        <path class="cls-3" d="m19.54,33.43h.53c1.73,0,3.46,0,5.19,0,.29,0,.44.1.56.37.73,1.73,1.48,3.46,2.21,5.19.09.22.21.3.45.3,1.47-.01,2.93,0,4.4,0,.1,0,.21-.01.36-.02-2.75-6.39-5.48-12.74-8.25-19.19-1.83,4.49-3.62,8.88-5.44,13.37Z"/>
      </g>
    </g>
  </g>
</svg>