<?xml version="1.0" encoding="UTF-8"?>
<svg id="Layer_2" data-name="Layer 2" xmlns="http://www.w3.org/2000/svg" xmlns:xlink="http://www.w3.org/1999/xlink" viewBox="0 0 49.97 50">
  <defs>
    <style>
      .cls-1 {
        fill: url(#linear-gradient-2);
      }

      .cls-2 {
        fill: url(#linear-gradient-3);
      }

      .cls-3 {
        fill: url(#linear-gradient);
      }
    </style>
    <linearGradient id="linear-gradient" x1=".72" y1="25" x2="49.22" y2="25" gradientUnits="userSpaceOnUse">
      <stop offset="0" stop-color="#1a3d83"/>
      <stop offset="1" stop-color="#00aeef"/>
    </linearGradient>
    <linearGradient id="linear-gradient-2" x1="0" y1="11.56" x2="23.49" y2="11.56" xlink:href="#linear-gradient"/>
    <linearGradient id="linear-gradient-3" x1="26.7" y1="38.22" x2="49.97" y2="38.22" xlink:href="#linear-gradient"/>
  </defs>
  <g id="PRINT">
    <g>
      <path class="cls-3" d="m48.21,13.5c.98-.97,1.23-1.94.83-3.09-1.61-4.65-4.78-7.81-9.41-9.47-1.21-.43-2.2-.15-3.2.86-9.4,9.49-18.77,19.01-28.36,28.3-2.98,2.89-5.03,5.91-5.51,10.09-.34,2.95-1.17,5.85-1.84,9.06,4.59-.97,8.86-1.93,13.16-2.77,1.21-.24,2.09-.78,2.94-1.63,10.44-10.48,20.89-20.94,31.39-31.35ZM14.37,44.36c-.23.18-.63.14-.93.24-2.32.82-4.33.97-5.72-1.7-.47-.9-1.65-1.43-2.49-2.15-.27-.24-.47-.55-.71-.84.86-1.87.3-4.08,2.01-5.46.36-.29,1.02-.54,1.42-.42,4.02,1.25,6.69,3.93,7.99,7.94.46,1.42-.81,1.77-1.58,2.39Z"/>
      <path class="cls-1" d="m9.82,22.68c.25.25.54.45.52.44.85-.63,1.59-1.18,2.58-1.91-3.32-3.31-6.48-6.46-9.5-9.47,2.78-2.78,5.59-5.58,8.4-8.39.51.51,1.12,1.12,1.85,1.85-.81.77-1.6,1.53-2.4,2.29-.78.74-1.07,1.57-.21,2.4.8.76,1.62.48,2.3-.26.77-.83,1.51-1.69,2.09-2.35,1.45,1.43,2.63,2.58,3.96,3.89-.85.78-1.82,1.58-2.67,2.48-.63.67-.52,1.46.16,2.09.71.65,1.21.22,1.75-.33,1.56-1.57,3.15-3.11,4.84-4.77-3.28-3.28-6.37-6.39-9.48-9.48-1.53-1.52-3.05-1.56-4.59-.04C6.64,3.85,3.9,6.6,1.18,9.36c-1.58,1.61-1.56,3.11.02,4.69,2.87,2.88,5.75,5.76,8.63,8.63Z"/>
      <path class="cls-2" d="m48.89,36.04c-1.91-1.94-3.86-3.85-5.78-5.79-1.23-1.24-2.44-2.49-3.72-3.81-1.82,1.84-3.47,3.52-5.13,5.18-.8.8-.4,1.45.4,1.65.54.14,1.38-.12,1.81-.51.84-.75,1.48-1.72,2.06-2.42,1.54,1.48,2.72,2.62,4.09,3.95-.8.72-1.63,1.45-2.44,2.2-.75.7-.98,1.52-.21,2.3.76.76,1.62.59,2.3-.18.76-.86,1.46-1.77,2.18-2.66l.25.5c.67.61,1.34,1.22,1.83,1.66-2.8,2.86-5.59,5.72-8.48,8.67-3.09-3.1-6.22-6.23-9.3-9.31-.66.65-1.31,1.29-2.05,2.03,3.22,3.24,6.44,6.54,9.75,9.76,1.13,1.1,2.71.94,3.98-.3,2.87-2.81,5.72-5.65,8.53-8.53,1.39-1.43,1.34-2.98-.06-4.39Z"/>
    </g>
  </g>
</svg>