<?xml version="1.0" encoding="UTF-8"?>
<svg id="Layer_2" data-name="Layer 2" xmlns="http://www.w3.org/2000/svg" xmlns:xlink="http://www.w3.org/1999/xlink" viewBox="0 0 50 49.03">
  <defs>
    <style>
      .cls-1 {
        fill: url(#linear-gradient-2);
      }

      .cls-2 {
        fill: url(#linear-gradient-3);
      }

      .cls-3 {
        fill: url(#linear-gradient);
      }
    </style>
    <linearGradient id="linear-gradient" x1="0" y1="14.4" x2="28.8" y2="14.4" gradientUnits="userSpaceOnUse">
      <stop offset="0" stop-color="#1a3d83"/>
      <stop offset="1" stop-color="#00aeef"/>
    </linearGradient>
    <linearGradient id="linear-gradient-2" x1="26.32" y1="27.08" x2="50" y2="27.08" xlink:href="#linear-gradient"/>
    <linearGradient id="linear-gradient-3" x1="9.97" y1="39.43" x2="29.19" y2="39.43" xlink:href="#linear-gradient"/>
  </defs>
  <g id="PRINT">
    <g>
      <path class="cls-3" d="m3.19,17.55c.26.88.61,1.72,1.06,2.51l-1.28,1.61c-.42.53-.37,1.28.1,1.75l2.2,2.2c.48.47,1.23.52,1.75.1l1.6-1.27c.82.47,1.7.84,2.61,1.1l.24,2.06c.08.67.64,1.17,1.31,1.17h3.11c.67,0,1.23-.5,1.31-1.17l.23-1.99c.98-.25,1.92-.64,2.8-1.13l1.55,1.22c.53.42,1.28.37,1.75-.1l2.2-2.2c.47-.47.52-1.23.1-1.75l-1.2-1.53c.5-.87.89-1.79,1.15-2.75l1.86-.21c.67-.08,1.17-.64,1.17-1.31v-3.11c0-.67-.5-1.23-1.17-1.31l-1.83-.21c-.25-.95-.63-1.87-1.11-2.72l1.13-1.42c.42-.53.37-1.28-.1-1.75l-2.2-2.19c-.47-.47-1.22-.52-1.75-.1l-1.38,1.09c-.9-.53-1.86-.93-2.86-1.2l-.21-1.79c-.08-.67-.64-1.17-1.31-1.17h-3.11c-.67,0-1.23.5-1.31,1.17l-.21,1.79c-1.03.28-2.02.69-2.93,1.24l-1.43-1.14c-.53-.42-1.28-.37-1.75.1l-2.2,2.2c-.47.47-.51,1.23-.1,1.75l1.2,1.52c-.48.87-.84,1.79-1.08,2.75l-1.92.22c-.67.08-1.17.64-1.17,1.31v3.11c0,.67.5,1.23,1.17,1.31l2.02.23Zm11.27-8.42c2.84,0,5.15,2.31,5.15,5.14s-2.31,5.14-5.15,5.14-5.14-2.31-5.14-5.14,2.31-5.14,5.14-5.14h0Z"/>
      <path class="cls-1" d="m46.64,18.79l-1.64-1.39c-.51-.43-1.25-.41-1.73.05l-.9.85c-.77-.37-1.58-.63-2.42-.78l-.26-1.25c-.13-.65-.73-1.1-1.38-1.04l-2.14.18c-.66.06-1.17.59-1.19,1.26l-.04,1.27c-.82.3-1.6.7-2.31,1.22l-1.08-.72c-.55-.37-1.29-.26-1.71.25l-1.39,1.65c-.43.5-.41,1.25.05,1.73l.95,1.01c-.33.74-.56,1.52-.7,2.31l-1.35.28c-.65.13-1.1.73-1.04,1.39l.18,2.14c.06.66.59,1.17,1.26,1.19l1.46.05c.27.7.62,1.36,1.04,1.98l-.82,1.24c-.37.55-.26,1.29.24,1.72l1.64,1.39c.5.43,1.25.41,1.73-.05l1.07-1.01c.7.33,1.44.57,2.2.72l.3,1.47c.13.65.73,1.09,1.39,1.04l2.14-.18c.66-.06,1.17-.59,1.19-1.26l.05-1.44c.78-.28,1.52-.65,2.2-1.11l1.18.78c.55.36,1.29.26,1.72-.24l1.39-1.64c.43-.51.41-1.25-.05-1.73l-.95-1.01c.35-.74.6-1.52.75-2.32l1.3-.27c.65-.13,1.09-.73,1.04-1.39l-.18-2.14c-.06-.66-.59-1.17-1.26-1.19l-1.31-.04c-.27-.76-.64-1.48-1.09-2.15l.71-1.07c.38-.55.27-1.29-.23-1.72h0Zm-8.07,12.38c-2.31.2-4.36-1.53-4.55-3.84-.2-2.31,1.53-4.36,3.84-4.55,2.31-.2,4.36,1.53,4.55,3.84.2,2.31-1.53,4.36-3.84,4.55h0Z"/>
      <path class="cls-2" d="m11.16,37.41c-.66.07-1.16.62-1.17,1.28l-.02,1.32c-.01.66.48,1.23,1.14,1.31l.97.12c.16.59.39,1.15.69,1.68l-.63.77c-.42.52-.39,1.26.08,1.73l.92.94c.46.47,1.2.53,1.73.12l.78-.6c.55.32,1.13.58,1.73.76l.1,1c.07.66.62,1.16,1.28,1.17l1.32.02c.66.01,1.23-.48,1.31-1.14l.12-.95c.66-.16,1.28-.41,1.88-.73l.73.59c.52.42,1.25.39,1.73-.08l.95-.92c.47-.46.52-1.2.12-1.73l-.56-.72c.34-.57.61-1.18.79-1.82l.86-.09c.66-.07,1.16-.62,1.17-1.28l.02-1.32c.01-.66-.48-1.22-1.14-1.31l-.84-.11c-.16-.64-.4-1.25-.71-1.82l.53-.65c.42-.52.39-1.26-.08-1.73l-.92-.94c-.46-.47-1.2-.53-1.73-.12l-.63.48c-.59-.36-1.23-.64-1.9-.82l-.08-.82c-.07-.66-.62-1.16-1.28-1.17l-1.32-.02c-.66-.01-1.22.48-1.31,1.14l-.11.81c-.69.18-1.35.45-1.96.8l-.65-.53c-.52-.42-1.25-.39-1.73.08l-.95.93c-.48.46-.53,1.2-.12,1.73l.56.72c-.32.57-.58,1.18-.74,1.82l-.91.09Zm8.51-1.49c1.89.02,3.41,1.58,3.39,3.47-.02,1.89-1.58,3.41-3.47,3.39-1.89-.02-3.41-1.58-3.39-3.47.02-1.89,1.58-3.41,3.47-3.39h0Z"/>
    </g>
  </g>
</svg>