<?xml version="1.0" encoding="UTF-8"?>
<svg id="Layer_2" data-name="Layer 2" xmlns="http://www.w3.org/2000/svg" xmlns:xlink="http://www.w3.org/1999/xlink" viewBox="0 0 50 48.69">
  <defs>
    <style>
      .cls-1 {
        fill: none;
      }

      .cls-2 {
        fill: url(#linear-gradient);
      }
    </style>
    <linearGradient id="linear-gradient" x1="25" y1="41.41" x2="25" y2="7.28" gradientUnits="userSpaceOnUse">
      <stop offset="0" stop-color="#482677"/>
      <stop offset="1" stop-color="#7c278e"/>
    </linearGradient>
  </defs>
  <g id="PRINT">
    <g>
      <path class="cls-1" d="m0,40.37V8.32c.03-.13.07-.26.09-.39.14-1.41.59-2.71,1.37-3.88C2.96,1.8,5.04.47,7.72.09c.22-.03.44-.06.66-.09h33.3c.06.02.12.03.18.04.31.04.63.05.94.12,2.89.6,5.01,2.22,6.34,4.86.49.97.77,2.01.83,3.1,0,.07.03.14.04.21v32.04c-.02.21-.04.41-.06.61-.11.81-.31,1.58-.63,2.33-1.4,3.28-4.59,5.38-8.19,5.39H8.93c-.71,0-1.41-.09-2.1-.25-3.48-.81-6.2-3.77-6.69-7.29-.04-.27-.09-.53-.14-.79h0Z"/>
      <path class="cls-2" d="m7.5,23.66c.09-.64.16-1.28.27-1.92.4-2.5,1.36-4.78,2.79-6.86,2.16-3.15,5.07-5.36,8.66-6.64,2.44-.87,4.96-1.11,7.54-.87,3.21.3,6.1,1.43,8.67,3.35,3.14,2.33,5.26,5.39,6.37,9.13.72,2.4.87,4.86.53,7.34-.68,4.89-3.11,8.75-7,11.73-1.41,1.08-3,1.85-4.68,2.42-.77.26-1.29-.11-1.3-.92,0-1.51,0-3.03,0-4.54,0-.75-.04-1.51-.37-2.2-.19-.4-.46-.77-.69-1.16.64-.12,1.33-.21,2.01-.38,1.78-.46,3.38-1.25,4.46-2.82.79-1.14,1.15-2.44,1.31-3.8.12-1.03.16-2.06-.04-3.09-.22-1.14-.71-2.15-1.48-3.03-.14-.16-.16-.29-.09-.48.5-1.44.31-2.85-.23-4.23-.03-.09-.18-.17-.28-.18-.61-.09-1.18.09-1.72.34-.88.42-1.74.89-2.61,1.33-.16.08-.37.13-.53.09-2.73-.68-5.45-.68-8.18,0-.16.04-.39,0-.53-.1-1.11-.71-2.28-1.27-3.56-1.61-.01,0-.02,0-.03-.01-.84-.19-.99-.1-1.23.71-.36,1.24-.43,2.48,0,3.72.04.1,0,.27-.07.35-1.47,1.67-1.8,3.64-1.6,5.78.12,1.25.41,2.44.97,3.57.79,1.58,2.12,2.55,3.74,3.11.96.33,1.98.47,2.98.7.05.01.11.02.11.02-.25.46-.52.92-.76,1.39-.08.16-.14.34-.15.52-.01.37-.21.54-.54.63-1.11.3-2.21.49-3.27-.16-.56-.34-.97-.82-1.3-1.38-.5-.86-1.21-1.49-2.17-1.77-.35-.1-.76-.08-1.14-.05-.23.01-.31.2-.15.4.16.19.31.42.52.53.94.54,1.47,1.41,1.89,2.35.24.54.47,1.08.93,1.49.73.66,1.62.91,2.57.95.82.04,1.65,0,2.53,0,0,.5,0,1.07,0,1.65,0,.44.02.89.02,1.33,0,.82-.54,1.22-1.32.95-2.59-.88-4.86-2.27-6.77-4.23-1.85-1.9-3.26-4.08-4.13-6.6-.49-1.43-.78-2.9-.9-4.4-.01-.13-.04-.27-.05-.4,0-.68,0-1.37,0-2.05Z"/>
    </g>
  </g>
</svg>