<?xml version="1.0" encoding="UTF-8"?>
<svg id="Layer_2" data-name="Layer 2" xmlns="http://www.w3.org/2000/svg" xmlns:xlink="http://www.w3.org/1999/xlink" viewBox="0 0 50 48.69">
  <defs>
    <style>
      .cls-1 {
        fill: none;
      }

      .cls-2 {
        fill: url(#linear-gradient);
      }
    </style>
    <linearGradient id="linear-gradient" x1="28.02" y1="41.58" x2="21.95" y2="7.12" gradientUnits="userSpaceOnUse">
      <stop offset="0" stop-color="#5e0094"/>
      <stop offset="1" stop-color="#007fbc"/>
    </linearGradient>
  </defs>
  <g id="PRINT">
    <g>
      <path class="cls-1" d="m0,40.37V8.32c.03-.13.07-.26.09-.39.14-1.41.59-2.71,1.37-3.88C2.96,1.8,5.04.47,7.72.09c.22-.03.44-.06.66-.09h33.3c.06.02.12.03.18.04.31.04.63.05.94.12,2.89.6,5.01,2.22,6.34,4.86.49.97.77,2.01.83,3.1,0,.07.03.14.04.21v32.04c-.02.21-.04.41-.06.61-.11.81-.31,1.58-.63,2.33-1.4,3.28-4.59,5.38-8.19,5.39H8.93c-.71,0-1.41-.09-2.1-.25-3.48-.81-6.2-3.77-6.69-7.29-.04-.27-.09-.53-.14-.79h0Z"/>
      <path class="cls-2" d="m7.5,36.46c0-8.06,0-16.12,0-24.18.07-.17.17-.33.2-.5.29-1.3,1.2-2.1,2.59-2.54.31-.1.63-.16.95-.24,9.19,0,18.39,0,27.58,0,.11.05.22.13.34.15,2.22.45,3.32,1.61,3.32,3.6.01,7.73.01,15.47,0,23.2,0,2.3-1.61,3.71-4.23,3.71-8.82.01-17.65,0-26.47,0-2.28,0-3.59-.96-4.11-2.91-.03-.11-.11-.2-.17-.3Zm19.07-14.47c0-.48-.03-.81,0-1.14.07-.64-.17-.87-.83-.85-1.25.04-2.49.03-3.74,0-.48,0-.71.14-.71.66.01,5.27.01,10.54,0,15.82,0,.54.24.65.71.64,1.25-.02,2.49-.04,3.74,0,.66.03.83-.21.83-.85-.03-2.75-.03-5.51,0-8.26,0-.56.11-1.14.29-1.67.46-1.36,1.53-1.98,3.13-1.86,1.15.08,1.96.88,2.22,2.23.09.45.14.92.15,1.38.01,2.75.02,5.51,0,8.26,0,.57.17.77.76.76,1.3-.04,2.6-.04,3.89,0,.62.02.8-.19.79-.8-.03-2.34,0-4.67-.02-7.01-.02-1.58.04-3.18-.17-4.73-.55-3.98-3.77-5.5-7.27-4.96-1.51.23-2.71,1.08-3.77,2.36Zm-8.48,15.13c.03-.21.06-.34.06-.46,0-5.35,0-10.69.01-16.04,0-.5-.21-.61-.65-.6-1.27.02-2.55.04-3.82,0-.74-.03-.98.2-.97.96.03,4.93.02,9.86.02,14.8,0,.31-.04.63.03.93.04.17.27.41.41.41,1.63.03,3.25.02,4.91.02Zm.53-22.3c0-1.82-1.37-3.22-3.16-3.22-1.77,0-3.2,1.43-3.19,3.21,0,1.76,1.42,3.21,3.18,3.25,1.69.04,3.17-1.48,3.17-3.24Z"/>
    </g>
  </g>
</svg>