<?xml version="1.0" encoding="UTF-8"?>
<svg id="Layer_2" data-name="Layer 2" xmlns="http://www.w3.org/2000/svg" xmlns:xlink="http://www.w3.org/1999/xlink" viewBox="0 0 50 48.69">
  <defs>
    <style>
      .cls-1 {
        fill: url(#linear-gradient-2);
      }

      .cls-2 {
        fill: none;
      }

      .cls-3 {
        fill: url(#linear-gradient-3);
      }

      .cls-4 {
        fill: url(#linear-gradient);
      }

      .cls-5 {
        fill: url(#linear-gradient-4);
      }
    </style>
    <linearGradient id="linear-gradient" x1="24.8" y1="25.5" x2="24.8" y2="12.6" gradientUnits="userSpaceOnUse">
      <stop offset="0" stop-color="#002e94"/>
      <stop offset="1" stop-color="#00aeff"/>
    </linearGradient>
    <linearGradient id="linear-gradient-2" x1="24.82" y1="36.09" x2="24.82" y2="26.17" xlink:href="#linear-gradient"/>
    <linearGradient id="linear-gradient-3" x1="13.78" y1="35.57" x2="13.78" y2="13.53" xlink:href="#linear-gradient"/>
    <linearGradient id="linear-gradient-4" x1="36.24" y1="35.53" x2="36.24" y2="13.55" xlink:href="#linear-gradient"/>
  </defs>
  <g id="PRINT">
    <g>
      <path class="cls-2" d="m0,40.37V8.32c.03-.13.07-.26.09-.39.14-1.41.59-2.71,1.37-3.88C2.96,1.8,5.04.47,7.72.09c.22-.03.44-.06.66-.09h33.3c.06.02.12.03.18.04.31.04.63.05.94.12,2.89.6,5.01,2.22,6.34,4.86.49.97.77,2.01.83,3.1,0,.07.03.14.04.21v32.04c-.02.21-.04.41-.06.61-.11.81-.31,1.58-.63,2.33-1.4,3.28-4.59,5.38-8.19,5.39H8.93c-.71,0-1.41-.09-2.1-.25-3.48-.81-6.2-3.77-6.69-7.29-.04-.27-.09-.53-.14-.79h0Z"/>
      <g>
        <path class="cls-4" d="m39.95,12.6H9.66c4.98,4.37,9.55,8.39,14.13,12.41,1.06.93,1.9.39,2.77-.37,4.15-3.67,8.33-7.32,12.48-10.99.29-.26.52-.59.92-1.05Z"/>
        <path class="cls-1" d="m9.95,36.09h29.56c.06-.11.12-.23.18-.34-3.71-3.26-7.42-6.51-10.89-9.57-1.4.69-2.6,1.74-3.78,1.72-1.24-.02-2.46-1.08-3.8-1.74-3.56,3.13-7.24,6.37-11.27,9.92Z"/>
        <path class="cls-3" d="m7.5,13.53v22.04c4.38-3.84,8.4-7.37,12.57-11.03-4.18-3.66-8.22-7.2-12.57-11.02Z"/>
        <path class="cls-5" d="m42.5,35.53V13.55c-4.39,3.85-8.4,7.38-12.52,11,4.2,3.69,8.23,7.21,12.52,10.98Z"/>
      </g>
    </g>
  </g>
</svg>