<?xml version="1.0" encoding="UTF-8"?>
<svg id="Layer_2" data-name="Layer 2" xmlns="http://www.w3.org/2000/svg" xmlns:xlink="http://www.w3.org/1999/xlink" viewBox="0 0 50 48.69">
  <defs>
    <style>
      .cls-1 {
        fill: url(#linear-gradient-2);
      }

      .cls-2 {
        fill: none;
      }

      .cls-3 {
        fill: url(#linear-gradient);
      }
    </style>
    <linearGradient id="linear-gradient" x1="25" y1="39.89" x2="25" y2="8.8" gradientUnits="userSpaceOnUse">
      <stop offset="0" stop-color="#9852bf"/>
      <stop offset="1" stop-color="#00d8ff"/>
    </linearGradient>
    <linearGradient id="linear-gradient-2" x1="25.02" y1="27.4" x2="25.02" y2="21.22" xlink:href="#linear-gradient"/>
  </defs>
  <g id="PRINT">
    <g>
      <path class="cls-2" d="m0,40.37V8.32c.03-.13.07-.26.09-.39.14-1.41.59-2.71,1.37-3.88C2.96,1.8,5.04.47,7.72.09c.22-.03.44-.06.66-.09h33.3c.06.02.12.03.18.04.31.04.63.05.94.12,2.89.6,5.01,2.22,6.34,4.86.49.97.77,2.01.83,3.1,0,.07.03.14.04.21v32.04c-.02.21-.04.41-.06.61-.11.81-.31,1.58-.63,2.33-1.4,3.28-4.59,5.38-8.19,5.39H8.93c-.71,0-1.41-.09-2.1-.25-3.48-.81-6.2-3.77-6.69-7.29-.04-.27-.09-.53-.14-.79h0Z"/>
      <g>
        <path class="cls-3" d="m41,21.47c-1.2-1.1-2.64-1.81-4.15-2.38-.54-.2-1.09-.39-1.61-.58,0-.14,0-.21,0-.28.03-.19.07-.38.11-.57.39-2.02.6-4.05.04-6.07-.63-2.31-2.25-3.23-4.56-2.59-.7.19-1.41.45-2.01.83-1.08.69-2.1,1.49-3.13,2.25-.23.17-.43.36-.65.55-.28-.25-.5-.45-.72-.64-1.43-1.23-2.95-2.32-4.77-2.89-2.69-.84-4.43.18-5.01,2.93-.42,1.97-.17,3.92.26,5.86.1.44.03.65-.44.79-.79.24-1.61.47-2.31.88-1.17.68-2.37,1.37-3.35,2.29-1.56,1.47-1.58,3.29-.1,4.85.79.83,1.76,1.53,2.76,2.11,1.06.61,2.25,1.01,3.49,1.54-.12.66-.27,1.35-.36,2.04-.25,1.8-.32,3.59.37,5.32.63,1.56,1.75,2.25,3.43,2.13,1.43-.1,2.69-.67,3.85-1.45,1.03-.68,1.99-1.47,3.03-2.25.26.23.54.49.83.74,1.45,1.24,3,2.34,4.88,2.82,2.24.58,3.9-.28,4.49-2.52.3-1.11.37-2.3.36-3.46-.01-1.18-.25-2.35-.39-3.57.28-.1.58-.2.87-.3,1.77-.64,3.48-1.41,4.86-2.73,1.94-1.86,1.92-3.85-.06-5.67Zm-9.66-11.12c1.38-.36,2.21.12,2.61,1.5.61,2.08.29,4.13-.19,6.25-1.12-.18-2.19-.43-3.27-.49-1.07-.06-1.77-.49-2.35-1.39-.58-.89-1.32-1.67-2.04-2.56,1.54-1.46,3.15-2.77,5.24-3.32Zm-11.38,19.42c-1.16-.18-2.15-.34-3.29-.53.38-1.06.73-2.02,1.14-3.16.75,1.28,1.41,2.41,2.15,3.69Zm-3.27-10.23c1.08-.19,2.05-.36,3.24-.57-.76,1.32-1.39,2.42-2.11,3.66-.4-1.1-.75-2.04-1.13-3.09Zm2.22,5.33c-.14-.27-.16-.73-.02-.98.84-1.56,1.73-3.09,2.65-4.61.15-.25.56-.48.86-.48,1.75-.04,3.5-.04,5.25,0,.3,0,.71.22.87.47.93,1.51,1.82,3.04,2.67,4.6.13.24.14.69.01.93-.86,1.58-1.76,3.13-2.68,4.67-.13.22-.47.41-.74.44-.92.09-1.84.11-2.77.15,0-.03,0-.06,0-.09-.66,0-1.31-.04-1.97,0-.9.07-1.48-.28-1.9-1.1-.7-1.36-1.52-2.66-2.23-4.01Zm13.36,1.15c.44,1.15.8,2.09,1.2,3.15-1.13.19-2.15.36-3.34.56.74-1.29,1.39-2.41,2.14-3.71Zm-.02-3.39c-.74-1.27-1.37-2.36-2.13-3.66,1.19.21,2.15.38,3.27.58-.38,1.03-.73,1.97-1.14,3.08Zm-7.21-7.93c.72.88,1.36,1.64,2.09,2.53h-4.19c.72-.87,1.36-1.63,2.1-2.53Zm-8.97-2.83c.4-1.39,1.19-1.84,2.6-1.49,2.1.52,3.72,1.83,5.3,3.27-.97,1.23-1.88,2.4-2.81,3.55-.1.12-.27.22-.42.25-1.44.21-2.88.41-4.4.62-.45-1.4-.61-2.86-.56-4.33.02-.63.11-1.26.28-1.86Zm-5.96,14.37c-1.49-1.35-1.47-2.53.06-3.84,1.47-1.26,3.23-1.92,5.07-2.47.59,1.47,1.15,2.88,1.71,4.3.04.1.01.24-.03.34-.55,1.4-1.11,2.79-1.7,4.27-1.89-.55-3.65-1.29-5.11-2.6Zm8.6,12.11c-1.45.34-2.26-.14-2.66-1.54-.58-2.05-.25-4.08.25-6.1,1.48.2,2.85.37,4.22.57.25.04.55.13.7.3.94,1.14,1.84,2.31,2.8,3.54-1.55,1.44-3.19,2.74-5.31,3.25Zm6.39-4.31c-.71-.85-1.37-1.63-2.13-2.53h4.19c-.71.87-1.34,1.65-2.06,2.53Zm8.91,2.73c-.44,1.53-1.29,1.98-2.83,1.55-1.98-.56-3.51-1.82-5.03-3.23.62-.78,1.33-1.47,1.8-2.29.7-1.24,1.69-1.7,3.06-1.75.91-.03,1.82-.27,2.83-.44.49,2.09.77,4.12.17,6.16Zm6.33-10.94c-1.47,1.56-3.39,2.29-5.41,2.96-.61-1.46-1.19-2.85-1.75-4.23-.06-.14-.04-.34.02-.48.53-1.35,1.08-2.69,1.65-4.11,2.03.6,3.99,1.34,5.5,2.91.96,1,.95,1.92-.01,2.95Z"/>
        <path class="cls-1" d="m25.01,27.4c1.74,0,3.1-1.36,3.1-3.1,0-1.73-1.38-3.09-3.12-3.08-1.71.01-3.05,1.35-3.07,3.06-.02,1.73,1.35,3.12,3.08,3.12Z"/>
      </g>
    </g>
  </g>
</svg>