<?xml version="1.0" encoding="UTF-8"?>
<svg id="Layer_2" data-name="Layer 2" xmlns="http://www.w3.org/2000/svg" xmlns:xlink="http://www.w3.org/1999/xlink" viewBox="0 0 50 44.7">
  <defs>
    <style>
      .cls-1 {
        fill: url(#linear-gradient-2);
      }

      .cls-2 {
        fill: url(#linear-gradient-6);
      }

      .cls-3 {
        fill: url(#linear-gradient-5);
      }

      .cls-4 {
        fill: url(#linear-gradient-3);
      }

      .cls-5 {
        fill: url(#linear-gradient);
      }

      .cls-6 {
        fill: url(#linear-gradient-4);
      }
    </style>
    <linearGradient id="linear-gradient" x1="0" y1="22.35" x2="50" y2="22.35" gradientUnits="userSpaceOnUse">
      <stop offset="0" stop-color="#1a3d83"/>
      <stop offset="1" stop-color="#00aeef"/>
    </linearGradient>
    <linearGradient id="linear-gradient-2" x1="6.31" y1="27.6" x2="18.42" y2="27.6" xlink:href="#linear-gradient"/>
    <linearGradient id="linear-gradient-3" x1="21.32" y1="21.78" x2="43.69" y2="21.78" xlink:href="#linear-gradient"/>
    <linearGradient id="linear-gradient-4" x1="21.33" y1="32.12" x2="43.69" y2="32.12" xlink:href="#linear-gradient"/>
    <linearGradient id="linear-gradient-5" x1="21.32" y1="26.95" x2="37.13" y2="26.95" xlink:href="#linear-gradient"/>
    <linearGradient id="linear-gradient-6" x1="38.94" y1="26.94" x2="43.69" y2="26.94" xlink:href="#linear-gradient"/>
  </defs>
  <g id="PRINT">
    <g>
      <path class="cls-5" d="m50,30.98c0-9.57,0-19.14,0-28.71,0-1.37-.88-2.24-2.24-2.25-.86,0-1.72,0-2.59,0C29.35.02,18.38.03,2.56,0,.88,0,0,1.05,0,2.55c.03,10.54.02,21.07.02,31.61,0,2.76,0,5.52,0,8.29,0,1.23.79,2.19,1.93,2.23,1.44.05,29.7.02,41.07.02.01,0,.02,0,.04,0,1.5,0,2.99,0,4.49,0,1.63,0,2.46-.83,2.46-2.47,0-3.75,0-7.49,0-11.24Zm-6.87-26.41c1.05,0,1.92.86,1.91,1.9,0,1.01-.86,1.87-1.88,1.89-1.04.01-1.91-.86-1.91-1.91,0-1.03.84-1.87,1.87-1.88Zm-6.32,0c1.03.01,1.87.86,1.87,1.9,0,1.02-.86,1.88-1.89,1.88-1.05,0-1.9-.87-1.88-1.93.02-1.04.86-1.86,1.9-1.85Zm-6.38,0c1.04,0,1.88.84,1.88,1.88,0,1.06-.86,1.92-1.91,1.91-1.03-.02-1.86-.87-1.85-1.91,0-1.04.84-1.87,1.88-1.87Zm16.95,37.57h-2.37s0-.01,0-.02H2.63V13.14h44.76v29Z"/>
      <path class="cls-1" d="m7.65,35.15c3.15,0,6.3,0,9.45,0,.99,0,1.31-.33,1.31-1.34,0-4.12,0-8.23,0-12.35,0-1.08-.3-1.39-1.37-1.39-3.17,0-6.33,0-9.5,0-.88,0-1.24.36-1.24,1.26,0,2.08,0,4.15,0,6.23s0,4.15,0,6.23c0,1.04.32,1.37,1.34,1.37Z"/>
      <path class="cls-4" d="m22.79,23.06c3.64,0,7.28,0,10.91,0,1.92,0,1.38,0,3.3,0,1.76,0,3.52,0,5.27,0,.71,0,1.17-.31,1.35-.87.29-.91-.33-1.68-1.37-1.68-4.29,0-6.13,0-10.41,0-3.04,0-6.08,0-9.12,0-.98,0-1.6.79-1.33,1.68.18.57.65.88,1.4.88Z"/>
      <path class="cls-6" d="m42.22,30.84c-7.28,0-12.11,0-19.4,0-.14,0-.28,0-.42.02-.55.08-.95.49-1.05,1.04-.15.87.44,1.5,1.44,1.5,3.62,0,7.25,0,10.87,0,2.97,0,3.49,0,6.47,0,.76,0,1.51.01,2.27,0,.62-.01,1.06-.35,1.22-.9.28-.9-.36-1.65-1.41-1.65Z"/>
      <path class="cls-3" d="m35.64,28.22c.32,0,.67-.08.94-.24.49-.28.65-.89.48-1.44-.18-.56-.65-.87-1.36-.87-5.13,0-7.82,0-12.95,0-.86,0-1.43.51-1.43,1.28,0,.76.56,1.28,1.42,1.28,2.55,0,5.1,0,7.65,0h0c2.57,0,2.68.01,5.25,0Z"/>
      <path class="cls-2" d="m42.49,25.68c-.79-.04-1.58-.03-2.37,0-.68.03-1.17.58-1.18,1.25-.01.7.48,1.25,1.19,1.29.39.02.77,0,1.16,0h0c.39,0,.77.02,1.16,0,.71-.04,1.23-.56,1.25-1.25.01-.68-.49-1.26-1.2-1.29Z"/>
    </g>
  </g>
</svg>