<?xml version="1.0" encoding="UTF-8"?>
<svg id="Layer_2" data-name="Layer 2" xmlns="http://www.w3.org/2000/svg" xmlns:xlink="http://www.w3.org/1999/xlink" viewBox="0 0 50 50">
  <defs>
    <style>
      .cls-1 {
        fill: url(#linear-gradient-2);
      }

      .cls-2 {
        fill: url(#linear-gradient-3);
      }

      .cls-3 {
        fill: url(#linear-gradient);
      }
    </style>
    <linearGradient id="linear-gradient" x1=".02" y1="25" x2="50" y2="25" gradientUnits="userSpaceOnUse">
      <stop offset="0" stop-color="#1a3d83"/>
      <stop offset="1" stop-color="#00aeef"/>
    </linearGradient>
    <linearGradient id="linear-gradient-2" x1="0" y1="38.02" x2="23.96" y2="38.02" xlink:href="#linear-gradient"/>
    <linearGradient id="linear-gradient-3" x1="27.96" y1="10.87" x2="50" y2="10.87" xlink:href="#linear-gradient"/>
  </defs>
  <g id="PRINT">
    <g id="CUSTOM-Group">
      <path class="cls-3" d="m47.01,32.51c-2.57-2.57-6.14-3.66-10.72-2.44L19.95,13.71l.22-.82c.94-3.53-.08-7.33-2.65-9.91C14.88.36,11.15-.6,7.62.37c-.5.14-.89.53-1.03,1.04-.13.5.01,1.04.38,1.41l3.94,3.94c1.15,1.15,1.14,3,0,4.14-1.13,1.13-3.02,1.13-4.15,0l-3.94-3.94c-.37-.37-.91-.51-1.41-.38-.5.13-.9.53-1.04,1.03-.96,3.49-.02,7.24,2.62,9.88,2.57,2.57,6.14,3.67,10.72,2.44l16.34,16.36c-1.22,4.58-.17,8.12,2.44,10.72,2.63,2.63,6.36,3.59,9.88,2.62.5-.14.9-.53,1.03-1.04.13-.5-.01-1.04-.38-1.41l-3.93-3.93c-1.15-1.15-1.14-3,0-4.14,1.14-1.14,3.03-1.12,4.15,0l3.94,3.94c.37.37.91.51,1.41.38.5-.13.9-.53,1.04-1.03.96-3.49.02-7.24-2.62-9.88Z"/>
      <path class="cls-1" d="m15.68,26.03L1.71,40c-2.29,2.29-2.29,6,0,8.29,2.29,2.29,6,2.29,8.29,0l13.96-13.97-8.29-8.29Zm-7.05,17.71c-.57.57-1.5.57-2.07,0-.57-.57-.57-1.5,0-2.07l8.88-8.89c.57-.57,1.5-.57,2.07,0,.57.57.57,1.5,0,2.07l-8.88,8.89Z"/>
      <path class="cls-2" d="m49.57,2.95l-2.53-2.53c-.48-.48-1.21-.57-1.79-.22l-7.77,4.66c-.82.49-.96,1.62-.28,2.29l.62.62-9.86,9.82,4.14,4.14,9.86-9.82.87.87c.67.67,1.8.54,2.29-.28l4.66-7.77c.35-.58.25-1.31-.22-1.79Z"/>
    </g>
  </g>
</svg>