<?xml version="1.0" encoding="UTF-8"?>
<svg id="Layer_2" data-name="Layer 2" xmlns="http://www.w3.org/2000/svg" xmlns:xlink="http://www.w3.org/1999/xlink" viewBox="0 0 50 48.69">
  <defs>
    <style>
      .cls-1 {
        fill: none;
      }

      .cls-2 {
        fill: url(#linear-gradient);
      }
    </style>
    <linearGradient id="linear-gradient" x1="8.05" y1="32.24" x2="38.57" y2="18.01" gradientUnits="userSpaceOnUse">
      <stop offset="0" stop-color="#00bf47"/>
      <stop offset="1" stop-color="#024f00"/>
    </linearGradient>
  </defs>
  <g id="PRINT">
    <g>
      <path class="cls-1" d="m0,40.37V8.32c.03-.13.07-.26.09-.39.14-1.41.59-2.71,1.37-3.88C2.96,1.8,5.04.47,7.72.09c.22-.03.44-.06.66-.09h33.3c.06.02.12.03.18.04.31.04.63.05.94.12,2.89.6,5.01,2.22,6.34,4.86.49.97.77,2.01.83,3.1,0,.07.03.14.04.21v32.04c-.02.21-.04.41-.06.61-.11.81-.31,1.58-.63,2.33-1.4,3.28-4.59,5.38-8.19,5.39H8.93c-.71,0-1.41-.09-2.1-.25-3.48-.81-6.2-3.77-6.69-7.29-.04-.27-.09-.53-.14-.79h0Z"/>
      <path class="cls-2" d="m11,38.57c.57-1.71,1.08-3.27,1.62-4.81.18-.5.14-.88-.16-1.34-5.91-8.84-.62-20.96,9.9-22.73,8-1.34,15.5,3.63,17.28,11.44,1.92,8.46-4.19,17.02-12.79,17.97-3.44.38-6.61-.3-9.59-2.03-.28-.16-.72-.2-1.03-.11-1.7.49-3.38,1.03-5.23,1.61Zm8.4-22.29c-.03-.08-.06-.17-.08-.25-.53.3-1.17.49-1.58.91-1.67,1.66-1.88,4.03-.49,6.47,2.54,4.47,6.09,7.7,11.24,8.97,1.69.42,3.11.07,4.45-.94.89-.67,1.09-1.63,1.07-2.65,0-.24-.29-.57-.53-.7-1.02-.54-2.08-1-3.1-1.53-.62-.31-1.04-.22-1.41.39-.27.43-.65.78-.96,1.19-.35.46-.73.52-1.26.29-1.97-.83-3.62-2.07-4.92-3.78-1.12-1.48-1.14-1.49-.05-2.94.48-.63.66-1.21.24-1.98-.41-.75-.69-1.57-.98-2.38-.28-.76-.67-1.29-1.62-1.08Z"/>
    </g>
  </g>
</svg>