<?xml version="1.0" encoding="UTF-8"?>
<svg id="Layer_2" data-name="Layer 2" xmlns="http://www.w3.org/2000/svg" xmlns:xlink="http://www.w3.org/1999/xlink" viewBox="0 0 50 48.69">
  <defs>
    <style>
      .cls-1 {
        fill: url(#linear-gradient-2);
      }

      .cls-2 {
        fill: #c598ff;
      }

      .cls-3 {
        fill: url(#linear-gradient-5);
      }

      .cls-4 {
        fill: none;
      }

      .cls-5 {
        fill: url(#linear-gradient-3);
      }

      .cls-6 {
        fill: url(#linear-gradient);
      }

      .cls-7 {
        fill: url(#linear-gradient-4);
      }
    </style>
    <linearGradient id="linear-gradient" x1="13.34" y1="12.68" x2="25.07" y2="12.68" gradientUnits="userSpaceOnUse">
      <stop offset="0" stop-color="#f24e1e"/>
      <stop offset="1" stop-color="#f2a61e"/>
    </linearGradient>
    <linearGradient id="linear-gradient-2" x1="24.89" y1="12.68" x2="36.63" y2="12.68" gradientUnits="userSpaceOnUse">
      <stop offset="0" stop-color="#ff7262"/>
      <stop offset="1" stop-color="#b84862"/>
    </linearGradient>
    <linearGradient id="linear-gradient-3" x1="25" y1="24.35" x2="36.66" y2="24.35" gradientUnits="userSpaceOnUse">
      <stop offset="0" stop-color="#1abcfe"/>
      <stop offset="1" stop-color="#1a4afe"/>
    </linearGradient>
    <linearGradient id="linear-gradient-4" x1="13.34" y1="24.35" x2="25" y2="24.35" gradientUnits="userSpaceOnUse">
      <stop offset="0" stop-color="#a259ff"/>
      <stop offset="1" stop-color="#a2bfff"/>
    </linearGradient>
    <linearGradient id="linear-gradient-5" x1="13.34" y1="36.01" x2="25" y2="36.01" gradientUnits="userSpaceOnUse">
      <stop offset="0" stop-color="#0acf83"/>
      <stop offset="1" stop-color="#0aa1ff"/>
    </linearGradient>
  </defs>
  <g id="PRINT">
    <g>
      <path class="cls-4" d="m0,40.37V8.32c.03-.13.07-.26.09-.39.14-1.41.59-2.71,1.37-3.88C2.96,1.8,5.04.47,7.72.09c.22-.03.44-.06.66-.09h33.3c.06.02.12.03.18.04.31.04.63.05.94.12,2.89.6,5.01,2.22,6.34,4.86.49.97.77,2.01.83,3.1,0,.07.03.14.04.21v32.04c-.02.21-.04.41-.06.61-.11.81-.31,1.58-.63,2.33-1.4,3.28-4.59,5.38-8.19,5.39H8.93c-.71,0-1.41-.09-2.1-.25-3.48-.81-6.2-3.77-6.69-7.29-.04-.27-.09-.53-.14-.79h0Z"/>
      <g>
        <path class="cls-6" d="m25.07,18.51s-.05,0-.07,0c-.02,0-.03,0-.05,0-2,0-4,0-5.99,0-.15,0-.29-.01-.44-.03-.66-.08-1.28-.25-1.88-.54-2.29-1.1-3.61-3.56-3.25-6.08.05-.35.13-.7.24-1.03.52-1.5,1.48-2.62,2.89-3.35.62-.32,1.27-.52,1.97-.59.12-.01.24-.03.36-.04,2.04,0,4.09,0,6.13,0"/>
        <path class="cls-1" d="m24.89,18.51s.05,0,.07,0c.02,0,.03,0,.05,0,2,0,4,0,5.99,0,.15,0,.29-.01.44-.03.66-.08,1.28-.25,1.88-.54,2.29-1.1,3.61-3.56,3.25-6.08-.05-.35-.13-.7-.24-1.03-.52-1.5-1.48-2.62-2.89-3.35-.62-.32-1.27-.52-1.97-.59-.12-.01-.24-.03-.36-.04-2.04,0-4.09,0-6.13,0"/>
        <path class="cls-5" d="m36.66,24.66s-.02.08-.03.12c-.04.79-.26,1.54-.63,2.23-.84,1.59-2.15,2.6-3.9,3.02-.7.17-1.41.19-2.12.08-1.36-.2-2.52-.81-3.45-1.82-.75-.81-1.23-1.76-1.44-2.85-.04-.22-.07-.44-.09-.66-.02-.29-.02-.59,0-.88.04-.57.17-1.13.37-1.66.81-2.09,2.79-3.61,5.16-3.72.19,0,.37,0,.56,0,.5.02.99.1,1.46.26,1.49.48,2.61,1.41,3.37,2.77.41.73.65,1.52.69,2.36,0,.04,0,.08.03.12v.64Z"/>
        <path class="cls-2" d="m25,18.51s0,0,0,0c-.03,0-.07,0-.1,0-1.89,0-3.79,0-5.68,0-.08,0-.17,0-.25,0,0,0,0,0,0,0,2,0,4,0,5.99,0,.02,0,.03,0,.05,0Z"/>
        <path class="cls-7" d="m18.96,18.52c.08,0,.17,0,.25,0,1.89,0,3.79,0,5.68,0,.03,0,.07,0,.1,0,0,.04,0,.07,0,.11,0,1.72,0,3.44,0,5.17,0,.03,0,.06,0,.08-.02.19,0,.39,0,.58,0,.12-.01.24,0,.35,0,1.75,0,3.49,0,5.24,0,.04,0,.09,0,.13,0,0,0,0-.01,0-.03-.01-.07,0-.1,0-1.89,0-3.77,0-5.66,0-.09,0-.17,0-.26,0-1.27-.05-2.41-.46-3.4-1.25-1.11-.88-1.83-2.02-2.09-3.41-.37-1.92.1-3.64,1.41-5.1.77-.86,1.72-1.42,2.83-1.71.41-.11.83-.17,1.26-.18Z"/>
        <path class="cls-3" d="m24.98,30.18s0,0,.01,0c.01.03,0,.06,0,.08,0,1.89,0,3.79,0,5.68,0,1.67-.59,3.1-1.79,4.27-.87.85-1.91,1.36-3.11,1.56-.19.03-.37.05-.56.06-.23.02-.46.02-.69,0-.72-.05-1.41-.2-2.06-.51-1.63-.77-2.72-2.01-3.23-3.75-.2-.68-.25-1.37-.19-2.08.17-2.04,1.42-3.85,3.27-4.75.64-.31,1.32-.5,2.04-.56.1,0,.19-.01.29-.02.01,0,.03,0,.04,0,1.97,0,3.94,0,5.91,0,.02,0,.05,0,.07,0Z"/>
        <path class="cls-2" d="m24.98,30.18s-.05,0-.07,0c-1.97,0-3.94,0-5.91,0-.01,0-.03,0-.04,0,0,0,0,0,0,0,.09,0,.17,0,.26,0,1.89,0,3.77,0,5.66,0,.03,0,.07,0,.1,0Z"/>
        <path class="cls-2" d="m25,24.81c-.01-.12,0-.24,0-.35,0-.19-.01-.39,0-.58,0,0,.01.02.02.03-.02.29-.02.59,0,.88,0,0-.01.02-.02.03Z"/>
      </g>
    </g>
  </g>
</svg>