<?xml version="1.0" encoding="UTF-8"?>
<svg id="Layer_2" data-name="Layer 2" xmlns="http://www.w3.org/2000/svg" xmlns:xlink="http://www.w3.org/1999/xlink" viewBox="0 0 50 50">
  <defs>
    <style>
      .cls-1 {
        fill: url(#linear-gradient);
      }
    </style>
    <linearGradient id="linear-gradient" x1="0" y1="25" x2="50" y2="25" gradientUnits="userSpaceOnUse">
      <stop offset="0" stop-color="#3790d0"/>
      <stop offset=".22" stop-color="#358cce"/>
      <stop offset=".4" stop-color="#3082cb"/>
      <stop offset=".57" stop-color="#2971c5"/>
      <stop offset=".73" stop-color="#1e5abe"/>
      <stop offset=".87" stop-color="#103bb3"/>
      <stop offset="1" stop-color="#011ba9"/>
    </linearGradient>
  </defs>
  <g id="PRINT">
    <path class="cls-1" d="m45,0H5C2.24,0,0,2.24,0,5v40c0,2.76,2.24,5,5,5h40c2.76,0,5-2.24,5-5V5c0-2.76-2.24-5-5-5Zm-21.65,43.81c-.5,0-1.07-.43-1.48-.81-3.72-3.39-7.41-6.82-11.67-10.76,2.88-2.69,5.48-5.41,8.41-7.7.94-.73,2.8-.23,4.21-.45,1.5-.23,3.18-.31,4.4-1.08,1.85-1.16,2.5-3.15,1.79-5.37-.79-2.46-2.61-3.53-5.08-3.56-4.35-.04-8.7-.01-13.28-.01v-7.74c5.76,0,11.49-.53,17.07.16,5.11.63,9.1,5.7,9.67,10.76.62,5.62-1.47,10.06-6.29,13.1-1.04.65-2.17,1.16-3.52,1.88,3.99,3.79,7.8,7.41,12.22,11.61-6.06,0-11.25.02-16.44-.04Z"/>
  </g>
</svg>